<mxfile host="Electron" modified="2023-11-07T00:54:47.221Z" agent="Mozilla/5.0 (Windows NT 10.0; Win64; x64) AppleWebKit/537.36 (KHTML, like Gecko) draw.io/21.2.1 Chrome/112.0.5615.87 Electron/24.1.2 Safari/537.36" etag="WCqGNht-UNSHNrSAHAB8" version="21.2.1" type="device">
  <diagram name="Página-1" id="BvNsoCnlTUIMcRPLrKTv">
    <mxGraphModel dx="1036" dy="606" grid="1" gridSize="10" guides="1" tooltips="1" connect="1" arrows="1" fold="1" page="1" pageScale="1" pageWidth="827" pageHeight="1169" math="0" shadow="0">
      <root>
        <mxCell id="0" />
        <mxCell id="1" parent="0" />
        <mxCell id="AUOfjgM9MPy7PJw9SMM--3" style="edgeStyle=orthogonalEdgeStyle;rounded=0;orthogonalLoop=1;jettySize=auto;html=1;exitX=0.5;exitY=0.5;exitDx=0;exitDy=0;exitPerimeter=0;entryX=0;entryY=0.5;entryDx=0;entryDy=0;endArrow=none;endFill=0;" edge="1" parent="1" source="AUOfjgM9MPy7PJw9SMM--1" target="AUOfjgM9MPy7PJw9SMM--2">
          <mxGeometry relative="1" as="geometry" />
        </mxCell>
        <mxCell id="AUOfjgM9MPy7PJw9SMM--1" value="Actor" style="shape=umlActor;verticalLabelPosition=bottom;verticalAlign=top;html=1;" vertex="1" parent="1">
          <mxGeometry x="80" y="50" width="30" height="60" as="geometry" />
        </mxCell>
        <mxCell id="AUOfjgM9MPy7PJw9SMM--9" style="edgeStyle=orthogonalEdgeStyle;rounded=0;orthogonalLoop=1;jettySize=auto;html=1;exitX=0.5;exitY=1;exitDx=0;exitDy=0;entryX=0.5;entryY=0;entryDx=0;entryDy=0;startArrow=none;startFill=0;endArrow=none;endFill=0;" edge="1" parent="1" source="AUOfjgM9MPy7PJw9SMM--2" target="AUOfjgM9MPy7PJw9SMM--5">
          <mxGeometry relative="1" as="geometry" />
        </mxCell>
        <mxCell id="AUOfjgM9MPy7PJw9SMM--2" value="Acessar Sistema" style="ellipse;whiteSpace=wrap;html=1;" vertex="1" parent="1">
          <mxGeometry x="390" y="45" width="140" height="70" as="geometry" />
        </mxCell>
        <mxCell id="AUOfjgM9MPy7PJw9SMM--4" value="O professor acessa o sistema" style="text;html=1;strokeColor=none;fillColor=none;align=center;verticalAlign=middle;whiteSpace=wrap;rounded=0;" vertex="1" parent="1">
          <mxGeometry x="150" y="45" width="190" height="30" as="geometry" />
        </mxCell>
        <mxCell id="AUOfjgM9MPy7PJw9SMM--5" value="Cadastrar Turma" style="ellipse;whiteSpace=wrap;html=1;" vertex="1" parent="1">
          <mxGeometry x="390" y="160" width="140" height="70" as="geometry" />
        </mxCell>
        <mxCell id="AUOfjgM9MPy7PJw9SMM--6" value="dados estáticos:&lt;br&gt;&quot;nome da turma&quot;" style="ellipse;whiteSpace=wrap;html=1;" vertex="1" parent="1">
          <mxGeometry x="390" y="330" width="140" height="70" as="geometry" />
        </mxCell>
        <mxCell id="AUOfjgM9MPy7PJw9SMM--7" value="O professor escolhe a opção &quot;Cadastrar Turma&quot;" style="text;html=1;strokeColor=none;fillColor=none;align=center;verticalAlign=middle;whiteSpace=wrap;rounded=0;" vertex="1" parent="1">
          <mxGeometry x="471" y="120" width="280" height="30" as="geometry" />
        </mxCell>
        <mxCell id="AUOfjgM9MPy7PJw9SMM--8" value="O professor fornece o nome da Turma e confirma o cadastro" style="text;html=1;strokeColor=none;fillColor=none;align=center;verticalAlign=middle;whiteSpace=wrap;rounded=0;" vertex="1" parent="1">
          <mxGeometry x="470" y="290" width="350" height="30" as="geometry" />
        </mxCell>
        <mxCell id="AUOfjgM9MPy7PJw9SMM--10" value="&amp;lt;&amp;lt;EXTEND&amp;gt;&amp;gt;" style="endArrow=open;endFill=0;html=1;rounded=0;dashed=1;entryX=0.5;entryY=1;entryDx=0;entryDy=0;" edge="1" parent="1" source="AUOfjgM9MPy7PJw9SMM--6" target="AUOfjgM9MPy7PJw9SMM--5">
          <mxGeometry width="160" relative="1" as="geometry">
            <mxPoint x="334" y="310" as="sourcePoint" />
            <mxPoint x="494" y="310" as="targetPoint" />
          </mxGeometry>
        </mxCell>
      </root>
    </mxGraphModel>
  </diagram>
</mxfile>
